{"title":"Black Water 2007 DVDRip Xvid LKRG","uid":6481860,"size":1098690484,"categoryP":"video","categoryS":"movies","magnet":"?xt=urn:btih:1aa7ce2fdb1a046f178601996bd2bda028e225d9&amp;dn=Black+Water+2007+DVDRip+Xvid+LKRG&amp;tr=udp%3A%2F%2Ftracker.openbittorrent.com%3A80&amp;tr=udp%3A%2F%2Fopen.demonii.com%3A1337&amp;tr=udp%3A%2F%2Ftracker.coppersurfer.tk%3A6969&amp;tr=udp%3A%2F%2Fexodus.desync.com%3A6969","seeders":1,"leechers":0,"uploader":"TPBAgri","files":-1,"time":1308556497,"description":"PLOT\n\nA terrifying tale of survival in the mangrove swamps of Northern Australia\n\nRuntime ..........: 1h 29mn\nFile Size ........: 1.02 GB\nResolution .......: 704x396\nIMDb URL .........: http://www.imdb.com/title/tt0816436/\nGenre ............: Horror,Thriller\nLanguage .........: English\nVideo\nID : 0\nFormat : MPEG-4 Visual\nFormat profile : Advanced Simple@L5\nFormat settings, BVOP : Yes\nFormat settings, QPel : No\nFormat settings, GMC : No warppoints\nFormat settings, Matrix : Default (H.263)\nCodec ID : XVID\nCodec ID/Hint : XviD\nDuration : 1h 29mn\nBit rate : 1 187 Kbps\nWidth : 704 pixels\nHeight : 396 pixels\nDisplay aspect ratio : 16:9\nFrame rate : 23.976 fps\nColor space : YUV\nChroma subsampling : 4:2:0\nBit depth : 8 bits\nScan type : Progressive\nCompression mode : Lossy\nBits/(Pixel*Frame) : 0.178\nStream size : 758 MiB (72%)\nWriting library : XviD 1.2.1 (UTC 2008-12-04)\n\nAudio\nID : 1\nFormat : AC-3\nFormat/Info : Audio Coding 3\nMode extension : CM (complete main)\nCodec ID : 2000\nDuration : 1h 29mn\nBit rate mode : Constant\nBit rate : 448 Kbps\nChannel(s) : 6 channels\nChannel positions : Front: L C R, Side: L R, LFE\nSampling rate : 48.0 KHz\nBit depth : 16 bits\nCompression mode : Lossy\nVideo delay : 42ms\nStream size : 286 MiB (27%)\nAlignment : Split accross interleaves\nInterleave, duration : 500 ms (11.99 video frames)\nInterleave, preload duration : 500 ms\n\n\n &lt;a href=&quot;\nhttp://leetleech.org/images/04509778221218690601.png&quot; rel=&quot;nofollow&quot; target=&quot;_NEW&quot;&gt;\nhttp://leetleech.org/images/04509778221218690601.png&lt;/a&gt;\n &lt;a href=&quot;\nhttp://leetleech.org/images/03504994007141443912.png&quot; rel=&quot;nofollow&quot; target=&quot;_NEW&quot;&gt;\nhttp://leetleech.org/images/03504994007141443912.png&lt;/a&gt;\n &lt;a href=&quot;\nhttp://leetleech.org/images/04871334579849582004.png&quot; rel=&quot;nofollow&quot; target=&quot;_NEW&quot;&gt;\nhttp://leetleech.org/images/04871334579849582004.png&lt;/a&gt;\n &lt;a href=&quot;\nhttp://leetleech.org/images/44219251096200847864.png&quot; rel=&quot;nofollow&quot; target=&quot;_NEW&quot;&gt;\nhttp://leetleech.org/images/44219251096200847864.png&lt;/a&gt;\n &lt;a href=&quot;\nhttp://leetleech.org/images/35070106622165655688.png&quot; rel=&quot;nofollow&quot; target=&quot;_NEW&quot;&gt;\nhttp://leetleech.org/images/35070106622165655688.png&lt;/a&gt;","torrent":{"xt":"urn:btih:1aa7ce2fdb1a046f178601996bd2bda028e225d9","amp;dn":"Black+Water+2007+DVDRip+Xvid+LKRG","amp;tr":["udp%3A%2F%2Ftracker.openbittorrent.com%3A80","udp%3A%2F%2Fopen.demonii.com%3A1337","udp%3A%2F%2Ftracker.coppersurfer.tk%3A6969","udp%3A%2F%2Fexodus.desync.com%3A6969"],"infoHash":"1aa7ce2fdb1a046f178601996bd2bda028e225d9","infoHashBuffer":{"type":"Buffer","data":[26,167,206,47,219,26,4,111,23,134,1,153,107,210,189,160,40,226,37,217]},"announce":[],"urlList":[]}}